<svg xmlns="http://www.w3.org/2000/svg" viewBox="0 0 24 24" fill="currentColor">
  <path d="M12 0C5.37 0 0 5.46 0 12.2c0 5.39 3.44 9.96 8.2 11.58.6.12.82-.27.82-.58 0-.28-.01-1.04-.02-2.05-3.34.73-4.04-1.66-4.04-1.66-.55-1.43-1.33-1.81-1.33-1.81-1.09-.76.08-.74.08-.74 1.2.09 1.83 1.25 1.83 1.25 1.07 1.87 2.81 1.33 3.5 1.02.11-.8.42-1.33.75-1.63-2.67-.31-5.48-1.37-5.48-6.1 0-1.35.47-2.45 1.25-3.31-.13-.31-.54-1.57.12-3.28 0 0 1.01-.33 3.3 1.26a11.2 11.2 0 0 1 3-.41c1.02 0 2.05.14 3 .41 2.28-1.59 3.29-1.26 3.29-1.26.67 1.71.25 2.97.13 3.28.78.86 1.24 1.96 1.24 3.31 0 4.74-2.82 5.78-5.5 6.09.43.38.81 1.12.81 2.26 0 1.63-.02 2.94-.02 3.34 0 .32.21.7.83.58C20.57 22.16 24 17.58 24 12.2 24 5.46 18.63 0 12 0Z"/>
</svg>
